<?xml version="1.0" encoding="UTF-8" standalone="no"?>
<!-- Created with Keyshape -->
<svg xmlns="http://www.w3.org/2000/svg" xmlns:xlink="http://www.w3.org/1999/xlink" viewBox="0 0 180 180" text-rendering="geometricPrecision" shape-rendering="geometricPrecision" style="background: rgba(28,26,26,0.00); white-space: pre;">
    <style>
@keyframes a1_t { 0% { transform: translate(77.560848px,65.122231px) rotate(0deg); } 10% { transform: translate(77.560848px,65.122231px) rotate(0deg); animation-timing-function: cubic-bezier(0.42,0,1,1); } 17.5% { transform: translate(77.560848px,65.122231px) rotate(-5deg); } 22.5% { transform: translate(77.560848px,65.122231px) rotate(93deg); } 24.1666% { transform: translate(77.560848px,65.122231px) rotate(90deg); } 25.8333% { transform: translate(77.560848px,65.122231px) rotate(92deg); } 27.5% { transform: translate(77.560848px,65.122231px) rotate(90deg); } 29.1666% { transform: translate(77.560848px,65.122231px) rotate(91deg); } 30.8333% { transform: translate(77.560848px,65.122231px) rotate(90deg); } 67.5% { transform: translate(77.560848px,65.122231px) rotate(90deg); animation-timing-function: cubic-bezier(0.42,0,1,1); } 70% { transform: translate(77.560848px,65.122231px) rotate(86deg); } 75.8333% { transform: translate(77.560848px,65.122231px) rotate(0deg); } 100% { transform: translate(77.560848px,65.122231px) rotate(0deg); } }
@keyframes a0_t { 0% { transform: scale(0.9,0.9) translate(-35.517px,-153.9px); animation-timing-function: cubic-bezier(0.6,-0.28,0.33,1.39); } 3.3333% { transform: scale(1.2,1.2) translate(-35.517px,-153.9px); } 5% { transform: scale(1,1) translate(-35.517px,-153.9px); } 6.6666% { transform: scale(1.1,1.1) translate(-35.517px,-153.9px); } 8.3333% { transform: scale(1,0.999893) translate(-35.517px,-153.9px); } 10% { transform: scale(1.05,1.05) translate(-35.517px,-153.9px); } 10.8333% { transform: scale(1,0.999576) translate(-35.517px,-153.9px); } 75.8333% { transform: scale(1,1) translate(-35.517px,-153.9px); } 79.1666% { transform: scale(1.2,1.2) translate(-35.517px,-153.9px); animation-timing-function: cubic-bezier(0.315882,0,0.683481,0.46719); } 85.8333% { transform: scale(0.9,0.9) translate(-35.517px,-153.9px); animation-timing-function: cubic-bezier(0.366496,0.331309,1,1); } 100% { transform: scale(0.9,0.9) translate(-35.517px,-153.9px); } }
@keyframes a2_t { 0% { transform: translate(77.560848px,65.122231px) rotate(0deg) scale(0.23,0.23) translate(-325.635px,-135.975px); } 10% { transform: translate(77.560848px,65.122231px) rotate(0deg) scale(0.23,0.23) translate(-325.635px,-135.975px); } 17.5% { transform: translate(77.560848px,65.122231px) rotate(-5deg) scale(0.23,0.23) translate(-325.635px,-135.975px); } 22.5% { transform: translate(77.560848px,65.122231px) rotate(93deg) scale(0.23,0.23) translate(-325.635px,-135.975px); } 24.1666% { transform: translate(77.560848px,65.122231px) rotate(90deg) scale(0.23,0.23) translate(-325.635px,-135.975px); } 100% { transform: translate(77.560848px,65.122231px) rotate(90deg) scale(0.23,0.23) translate(-325.635px,-135.975px); } }
@keyframes a2_o { 0% { opacity: 0; } 5% { opacity: 0; } 9.1667% { opacity: 1; } 67.5% { opacity: 1; } 70% { opacity: 0; } 100% { opacity: 0; } }
@keyframes rotation_t { 0% { transform: translate(29.109432px,38.877769px); } 100% { transform: translate(29.109432px,38.877769px); } }
    </style>
    <g id="rotation" transform="translate(29.109432, 38.877769) scale(0.785016)">
        <g style="animation: 4s linear infinite both a1_t;">
            <path class="st0" d="M66.2983,89.2L4.73559,89.2C2.13102,89.2,0,91.331,0,93.9356L0,213.864C0,216.469,2.13102,218.6,4.73559,218.6L66.2983,218.6C68.9028,218.6,71.0339,216.469,71.0339,213.864L71.0339,93.9356C71.0339,91.331,68.9028,89.2,66.2983,89.2ZM25.513,94.8235L45.4617,94.8235C46.0536,94.8235,46.5272,95.2971,46.5272,95.889C46.5272,96.481,46.0536,96.9545,45.4617,96.9545L25.513,96.9545C24.921,96.9545,24.4475,96.481,24.4475,95.889C24.4475,95.2971,24.921,94.8235,25.513,94.8235ZM35.5169,215.108C32.3796,215.108,29.8342,212.562,29.8342,209.425C29.8342,206.287,32.3796,203.742,35.5169,203.742C38.6543,203.742,41.1996,206.287,41.1996,209.425C41.1996,212.562,38.6543,215.108,35.5169,215.108ZM65.0552,197.823C65.0552,199.066,64.0489,200.072,62.7466,200.072L8.28728,200.072C6.985,200.072,5.97868,199.066,5.97868,197.823L5.97868,103.407C5.97868,102.164,6.985,101.157,8.28728,101.157L62.7466,101.157C64.0489,101.157,65.0552,102.164,65.0552,103.407L65.0552,197.823Z" fill="#FFFFFF" transform="translate(77.5608,65.1222) scale(0.9,0.9) translate(-35.517,-153.9)" style="animation: 4s linear infinite both a0_t;"/>
        </g>
        <g opacity="0" transform="translate(77.5608,65.1222) scale(0.23,0.23) translate(-325.635,-135.975)" style="animation: 4s linear infinite both a2_t, 4s linear infinite both a2_o;">
            <path class="st0" d="M541.6,27.7C598.9,40.6,635.1,97.8,622.1,155.2C615.7,183.7,598.2,207.7,573.5,222.6C572,223.5,570,223,569.3,221.4L563,208.3C562,206.2,559,206,557.8,208L527.8,257.4C526.7,259.2,527.8,261.5,529.9,261.9L587.8,270.9C590.2,271.3,592,268.8,590.9,266.7L583.3,250.8C582.6,249.4,583.2,247.7,584.5,247C616.8,228.4,639.7,197.7,648,161.1C664.2,89.4,619,17.9,547.3,1.8C525.6,-3.2,520.4,22.9,541.6,27.7Z" fill="#FFFFFF"/>
            <path class="st0" d="M109.3,245.3C52,232.1,16.2,174.7,29.4,117.5C36,88.8,53.8,64.8,78.8,50C80.1,49.2,81.7,49.8,82.3,51.1L91.1,69.8C92,71.7,94.6,71.7,95.6,69.9L122.4,19.5C124.4,15.7,122.2,11.1,118,10.3L62.6,0C60.6,-0.4,59,1.7,59.9,3.5L68.8,22.3C69.4,23.5,68.9,24.9,67.7,25.6C35.2,44,11.9,74.7,3.4,111.5C-13.1,183.1,31.7,254.8,103.3,271.3C126.6,276.6,130.5,250.2,109.3,245.3Z" fill="#FFFFFF"/>
        </g>
    </g>
</svg>
